<svg width="24" height="24" viewBox="0 0 24 24" fill="none" xmlns="http://www.w3.org/2000/svg">
<path fill-rule="evenodd" clip-rule="evenodd" d="M7 22C5.67392 22 4.40215 21.4732 3.46447 20.5355C2.52678 19.5979 2 18.3261 2 17V14C2 13.7348 2.10536 13.4804 2.29289 13.2929C2.48043 13.1054 2.73478 13 3 13C3.26522 13 3.51957 13.1054 3.70711 13.2929C3.89464 13.4804 4 13.7348 4 14V17C4 17.7956 4.31607 18.5587 4.87868 19.1213C5.44129 19.6839 6.20435 20 7 20H17C17.7956 20 18.5587 19.6839 19.1213 19.1213C19.6839 18.5587 20 17.7956 20 17V14C20 13.7348 20.1054 13.4804 20.2929 13.2929C20.4804 13.1054 20.7348 13 21 13C21.2652 13 21.5196 13.1054 21.7071 13.2929C21.8946 13.4804 22 13.7348 22 14V17C22 18.3261 21.4732 19.5979 20.5355 20.5355C19.5979 21.4732 18.3261 22 17 22H7Z" fill="white"/>
<path fill-rule="evenodd" clip-rule="evenodd" d="M7.28489 10.1C7.19295 10.0061 7.12044 9.89496 7.07148 9.77299C7.02252 9.65102 6.99809 9.5206 6.99958 9.38918C7.00106 9.25777 7.02844 9.12793 7.08014 9.0071C7.13184 8.88627 7.20685 8.77682 7.30089 8.685L11.8009 4.285C11.9877 4.10237 12.2386 4.00012 12.4999 4.00012C12.7612 4.00012 13.0121 4.10237 13.1989 4.285L17.6989 8.685C17.7948 8.77632 17.8716 8.88578 17.9249 9.00703C17.9781 9.12828 18.0068 9.2589 18.0092 9.39131C18.0115 9.52372 17.9876 9.65529 17.9387 9.77836C17.8898 9.90144 17.817 10.0136 17.7244 10.1083C17.6318 10.203 17.5213 10.2783 17.3994 10.33C17.2775 10.3817 17.1465 10.4086 17.014 10.4092C16.8816 10.4098 16.7504 10.3841 16.628 10.3336C16.5055 10.2831 16.3944 10.2088 16.3009 10.115L13.4999 7.376V16C13.4999 16.2652 13.3945 16.5196 13.207 16.7071C13.0195 16.8946 12.7651 17 12.4999 17C12.2347 17 11.9803 16.8946 11.7928 16.7071C11.6052 16.5196 11.4999 16.2652 11.4999 16V7.376L8.69989 10.115C8.60597 10.2069 8.49485 10.2795 8.37288 10.3284C8.25091 10.3774 8.12049 10.4018 7.98907 10.4003C7.85765 10.3988 7.72782 10.3715 7.60699 10.3197C7.48616 10.268 7.37671 10.193 7.28489 10.099V10.1Z" fill="white"/>
</svg>
