<svg width="112" height="29" viewBox="0 0 112 29" fill="none" xmlns="http://www.w3.org/2000/svg">
<path d="M22.4336 5.69531C22.5039 6.1875 22.5391 6.71484 22.5391 7.27734C22.5391 7.72266 22.498 8.17969 22.416 8.64844C22.3457 9.10547 22.2109 9.55664 22.0117 10.002C21.918 10.2012 21.8008 10.3887 21.6602 10.5645C21.5195 10.7402 21.3789 10.916 21.2383 11.0918C21.0977 11.2676 20.9629 11.4434 20.834 11.6191C20.7168 11.7832 20.6289 11.9531 20.5703 12.1289C20.4766 12.3516 20.4062 12.5859 20.3594 12.832C20.3242 13.0664 20.2949 13.3008 20.2715 13.5352C20.248 13.7695 20.2246 14.0039 20.2012 14.2383C20.1777 14.4727 20.1426 14.6953 20.0957 14.9062C19.9902 15.3164 19.8906 15.6504 19.7969 15.9082C19.7148 16.1543 19.6328 16.3652 19.5508 16.541C19.4688 16.7168 19.375 16.8809 19.2695 17.0332C19.1641 17.1738 19.041 17.3496 18.9004 17.5605C18.7715 17.748 18.6719 17.918 18.6016 18.0703C18.5312 18.2227 18.4668 18.3867 18.4082 18.5625C18.3613 18.7266 18.3145 18.9199 18.2676 19.1426C18.2324 19.3535 18.1797 19.6113 18.1094 19.916C18.0859 19.9863 18.0566 20.0508 18.0215 20.1094C17.9863 20.1562 17.9453 20.209 17.8984 20.2676C17.8633 20.3145 17.8281 20.373 17.793 20.4434C17.7695 20.5137 17.7578 20.6016 17.7578 20.707C17.7578 20.7773 17.7637 20.8535 17.7754 20.9355C17.7871 21.0176 17.793 21.0938 17.793 21.1641C17.793 21.293 17.7461 21.4395 17.6523 21.6035C17.5703 21.7559 17.4648 21.9141 17.3359 22.0781C17.2188 22.2422 17.0957 22.4121 16.9668 22.5879C16.8379 22.752 16.7383 22.9043 16.668 23.0449C16.5273 23.3145 16.416 23.5723 16.334 23.8184C16.2637 24.0645 16.1465 24.3223 15.9824 24.5918C15.7715 24.9316 15.5078 25.3242 15.1914 25.7695C14.875 26.2031 14.5293 26.6133 14.1543 27C13.791 27.3984 13.416 27.7324 13.0293 28.002C12.6426 28.2715 12.2734 28.4062 11.9219 28.4062C11.793 28.4062 11.6582 28.4004 11.5176 28.3887C11.377 28.377 11.2363 28.3711 11.0957 28.3711C10.791 28.3711 10.5332 28.3945 10.3223 28.4414C10.1113 28.4883 9.92383 28.5352 9.75977 28.582C9.60742 28.6406 9.46094 28.6875 9.32031 28.7227C9.19141 28.7695 9.05078 28.793 8.89844 28.793C8.75781 28.793 8.63477 28.7754 8.5293 28.7402C8.42383 28.7168 8.32422 28.6758 8.23047 28.6172C8.13672 28.5703 8.03711 28.5117 7.93164 28.4414C7.82617 28.3828 7.70312 28.3242 7.5625 28.2656C7.19922 28.1133 6.85938 28.002 6.54297 27.9316C6.22656 27.8613 5.92773 27.8027 5.64648 27.7559C5.36523 27.709 5.0957 27.6562 4.83789 27.5977C4.58008 27.5391 4.32227 27.4277 4.06445 27.2637C3.80664 27.1113 3.54297 26.8945 3.27344 26.6133C3.00391 26.3203 2.7168 25.9336 2.41211 25.4531C2.21289 25.1367 2.01367 24.8613 1.81445 24.627C1.62695 24.3926 1.45703 24.1641 1.30469 23.9414C1.15234 23.7188 1.0293 23.4902 0.935547 23.2559C0.841797 23.0098 0.794922 22.7227 0.794922 22.3945C0.794922 21.8672 0.830078 21.4336 0.900391 21.0938C0.970703 20.7422 1.15234 20.4902 1.44531 20.3379C1.69141 20.2207 1.92578 20.0215 2.14844 19.7402C2.37109 19.459 2.57617 19.1484 2.76367 18.8086C2.96289 18.457 3.15039 18.0996 3.32617 17.7363C3.51367 17.3613 3.69531 17.0215 3.87109 16.7168C4.05859 16.4004 4.24023 16.1426 4.41602 15.9434C4.60352 15.7441 4.79102 15.6387 4.97852 15.627C5.11914 15.627 5.27734 15.6797 5.45312 15.7852C5.64062 15.8906 5.82227 16.0195 5.99805 16.1719C6.17383 16.3125 6.33203 16.4648 6.47266 16.6289C6.61328 16.793 6.71289 16.9277 6.77148 17.0332C6.80664 17.1035 6.83008 17.209 6.8418 17.3496C6.85352 17.4785 6.85938 17.625 6.85938 17.7891C6.87109 17.9531 6.88281 18.1348 6.89453 18.334C6.90625 18.5215 6.93555 18.709 6.98242 18.8965C7.0293 19.0605 7.10547 19.2129 7.21094 19.3535C7.31641 19.4824 7.38672 19.6289 7.42188 19.793C7.48047 19.9805 7.49805 20.1738 7.47461 20.373C7.46289 20.5723 7.49219 20.7539 7.5625 20.918C7.75 21.4805 8.07227 21.9551 8.5293 22.3418C8.99805 22.7168 9.57812 22.9043 10.2695 22.9043C10.7031 22.9043 11.207 22.793 11.7812 22.5703C11.9102 22.5234 12.0801 22.4121 12.291 22.2363C12.502 22.0605 12.707 21.8672 12.9062 21.6562C13.1055 21.4336 13.2754 21.2051 13.416 20.9707C13.5684 20.7246 13.6445 20.5137 13.6445 20.3379C13.6445 20.1152 13.5332 19.9512 13.3105 19.8457C13.0996 19.7285 12.8594 19.6465 12.5898 19.5996C12.3203 19.541 12.0625 19.5 11.8164 19.4766C11.5703 19.4531 11.4121 19.418 11.3418 19.3711C11.248 19.3008 11.166 19.2012 11.0957 19.0723C11.0254 18.9316 10.9551 18.7793 10.8848 18.6152C10.8262 18.4512 10.7617 18.2871 10.6914 18.123C10.6211 17.959 10.5391 17.8125 10.4453 17.6836C10.3516 17.5664 10.2168 17.4727 10.041 17.4023C9.87695 17.3203 9.71289 17.1973 9.54883 17.0332C9.38477 16.8691 9.25 16.6816 9.14453 16.4707C9.05078 16.248 8.92188 16.0605 8.75781 15.9082C8.57031 15.7324 8.33008 15.5918 8.03711 15.4863C7.75586 15.3691 7.51562 15.2109 7.31641 15.0117C7.24609 14.9414 7.19336 14.8242 7.1582 14.6602C7.13477 14.4844 7.07617 14.3496 6.98242 14.2559C6.88867 14.1504 6.76562 14.0859 6.61328 14.0625C6.47266 14.0273 6.38477 13.9746 6.34961 13.9043C6.31445 13.8809 6.2793 13.7988 6.24414 13.6582C6.20898 13.5176 6.15625 13.3828 6.08594 13.2539C6.02734 13.1367 5.95117 13.0371 5.85742 12.9551C5.77539 12.873 5.73438 12.7793 5.73438 12.6738C5.73438 12.6152 5.74023 12.5625 5.75195 12.5156C5.76367 12.457 5.76953 12.3984 5.76953 12.3398C5.76953 12.2227 5.74023 12.1113 5.68164 12.0059C5.62305 11.8887 5.55273 11.7832 5.4707 11.6895C5.40039 11.584 5.33594 11.4902 5.27734 11.4082C5.21875 11.3145 5.18945 11.2207 5.18945 11.127C5.18945 10.9043 5.23047 10.6758 5.3125 10.4414C5.39453 10.1953 5.43555 9.9082 5.43555 9.58008C5.43555 9.36914 5.41797 9.15234 5.38281 8.92969C5.34766 8.69531 5.30664 8.4668 5.25977 8.24414C5.21289 8.00977 5.17188 7.78125 5.13672 7.55859C5.10156 7.33594 5.08398 7.11914 5.08398 6.9082C5.08398 6.73242 5.11328 6.57422 5.17188 6.43359C5.24219 6.29297 5.3125 6.1582 5.38281 6.0293C5.46484 5.88867 5.53516 5.73633 5.59375 5.57227C5.66406 5.4082 5.69922 5.20898 5.69922 4.97461C5.69922 4.75195 5.68164 4.5293 5.64648 4.30664C5.61133 4.08398 5.59375 3.88477 5.59375 3.70898C5.59375 3.58008 5.61133 3.44531 5.64648 3.30469C5.68164 3.16406 5.75195 3.03516 5.85742 2.91797C5.96289 2.78906 6.10352 2.68359 6.2793 2.60156C6.4668 2.51953 6.70117 2.47852 6.98242 2.47852C7.29883 2.47852 7.55664 2.54297 7.75586 2.67188C7.95508 2.80078 8.11328 2.9707 8.23047 3.18164C8.35938 3.38086 8.45898 3.60937 8.5293 3.86719C8.59961 4.125 8.65234 4.37695 8.6875 4.62305C8.73438 4.86914 8.77539 5.09766 8.81055 5.30859C8.85742 5.51953 8.92188 5.68359 9.00391 5.80078C9.08594 5.92969 9.20312 6.04102 9.35547 6.13477C9.51953 6.2168 9.69531 6.29883 9.88281 6.38086C10.082 6.45117 10.2754 6.52734 10.4629 6.60938C10.6621 6.69141 10.8379 6.79102 10.9902 6.9082C11.166 7.06055 11.3184 7.28906 11.4473 7.59375C11.5762 7.89844 11.7227 8.2207 11.8867 8.56055C12.0156 8.85352 12.1738 9.14648 12.3613 9.43945C12.5488 9.73242 12.6895 9.99609 12.7832 10.2305C12.877 10.4766 12.9238 10.7402 12.9238 11.0215C12.9355 11.291 13 11.5547 13.1172 11.8125C13.2109 12.0352 13.3867 12.2988 13.6445 12.6035C13.9141 12.9082 14.1895 13.2012 14.4707 13.4824C14.7637 13.752 15.0332 13.9863 15.2793 14.1855C15.5371 14.373 15.7012 14.4668 15.7715 14.4668C15.9355 14.4199 16.0586 14.2383 16.1406 13.9219C16.2227 13.6055 16.2871 13.248 16.334 12.8496C16.3926 12.4395 16.4395 12.0293 16.4746 11.6191C16.5215 11.1973 16.5859 10.8516 16.668 10.582C16.75 10.2891 16.8379 10.0664 16.9316 9.91406C17.0254 9.76172 17.1191 9.62695 17.2129 9.50977C17.3184 9.39258 17.4238 9.26953 17.5293 9.14062C17.6465 9.01172 17.7695 8.81836 17.8984 8.56055C17.957 8.43164 17.9863 8.26758 17.9863 8.06836C17.998 7.85742 18.0391 7.65234 18.1094 7.45312C18.168 7.28906 18.2441 7.14258 18.3379 7.01367C18.4434 6.87305 18.5137 6.7207 18.5488 6.55664C18.6543 6.19336 18.7305 5.83594 18.7773 5.48438C18.8242 5.12109 18.8887 4.79883 18.9707 4.51758C19.0527 4.23633 19.1699 4.00781 19.3223 3.83203C19.4863 3.65625 19.7324 3.56836 20.0605 3.56836C20.3184 3.56836 20.5762 3.59766 20.834 3.65625C21.1035 3.71484 21.3145 3.79102 21.4668 3.88477C21.4668 3.89648 21.5137 3.98438 21.6074 4.14844C21.7129 4.3125 21.8242 4.5 21.9414 4.71094C22.0703 4.92188 22.1816 5.12695 22.2754 5.32617C22.3809 5.51367 22.4336 5.63672 22.4336 5.69531ZM37.9551 16.3125C37.9551 16.3828 37.9609 16.4473 37.9727 16.5059C37.9844 16.5645 37.9902 16.6289 37.9902 16.6992C37.9902 16.9688 37.9551 17.2441 37.8848 17.5254C37.8262 17.8066 37.75 18.0879 37.6562 18.3691C37.5625 18.6504 37.4688 18.9375 37.375 19.2305C37.2812 19.5117 37.2109 19.7988 37.1641 20.0918C37.1406 20.209 37.1289 20.3438 37.1289 20.4961C37.1289 20.6367 37.1289 20.7832 37.1289 20.9355C37.1289 21.0879 37.123 21.2344 37.1113 21.375C37.0996 21.5156 37.082 21.6387 37.0586 21.7441C37 22.0371 36.8828 22.3535 36.707 22.6934C36.5312 23.0332 36.3613 23.3555 36.1973 23.6602C35.9512 24.1172 35.7285 24.5039 35.5293 24.8203C35.3418 25.125 35.1133 25.377 34.8438 25.5762C34.5859 25.7637 34.2578 25.8984 33.8594 25.9805C33.4609 26.0625 32.9336 26.1035 32.2773 26.1035C31.7148 26.1035 31.1465 26.0742 30.5723 26.0156C29.998 25.957 29.4414 25.875 28.9023 25.7695C28.3633 25.6641 27.8594 25.5469 27.3906 25.418C26.9219 25.2773 26.5176 25.1309 26.1777 24.9785C25.7793 24.8027 25.4629 24.6152 25.2285 24.416C24.9941 24.2168 24.7891 23.9766 24.6133 23.6953C24.4492 23.4141 24.2969 23.0684 24.1562 22.6582C24.0156 22.2363 23.8398 21.7148 23.6289 21.0938C23.5234 20.7773 23.4121 20.4668 23.2949 20.1621C23.1895 19.8574 23.0957 19.5527 23.0137 19.248C22.9316 18.9316 22.8672 18.6211 22.8203 18.3164C22.7734 18 22.7559 17.6777 22.7676 17.3496C22.7676 17.1621 22.7793 16.9453 22.8027 16.6992C22.8379 16.4414 22.8789 16.1895 22.9258 15.9434C22.9727 15.6855 23.0254 15.4453 23.084 15.2227C23.1426 14.9883 23.207 14.8008 23.2773 14.6602C23.3359 14.5195 23.4004 14.4023 23.4707 14.3086C23.5527 14.2148 23.6289 14.1211 23.6992 14.0273C23.7695 13.9336 23.8281 13.8398 23.875 13.7461C23.9219 13.6523 23.9453 13.5352 23.9453 13.3945C23.9453 13.2891 23.9336 13.2012 23.9102 13.1309C23.8867 13.0488 23.8574 12.9727 23.8223 12.9023C23.7871 12.832 23.7578 12.7617 23.7344 12.6914C23.7109 12.6094 23.6992 12.5215 23.6992 12.4277C23.6992 12.4395 23.7227 12.375 23.7695 12.2344C23.8281 12.0938 23.9043 11.9238 23.998 11.7246C24.0918 11.5137 24.2031 11.291 24.332 11.0566C24.4727 10.8105 24.6191 10.5879 24.7715 10.3887C24.9355 10.1777 25.1113 10.002 25.2988 9.86133C25.498 9.7207 25.6973 9.65039 25.8965 9.65039H26.3008H26.4414C26.6055 9.65039 26.8047 9.66797 27.0391 9.70312C27.2734 9.73828 27.5254 9.77344 27.7949 9.80859C28.0762 9.84375 28.3691 9.87891 28.6738 9.91406C28.9902 9.94922 29.3008 9.9668 29.6055 9.9668C30.1445 9.9668 30.6895 9.94922 31.2402 9.91406C31.791 9.87891 32.3125 9.86133 32.8047 9.86133C33.5078 9.86133 34.041 9.94922 34.4043 10.125C34.7793 10.3008 35.0547 10.5234 35.2305 10.793C35.418 11.0508 35.5469 11.3379 35.6172 11.6543C35.6992 11.959 35.8047 12.252 35.9336 12.5332C36.0273 12.7441 36.1914 12.9727 36.4258 13.2188C36.6602 13.4531 36.8711 13.7402 37.0586 14.0801C37.1523 14.2441 37.2109 14.4434 37.2344 14.6777C37.2578 14.9121 37.3164 15.1172 37.4102 15.293C37.5039 15.5508 37.6094 15.75 37.7266 15.8906C37.8555 16.0195 37.9316 16.1602 37.9551 16.3125ZM33.7539 17.209C33.7773 16.9746 33.8008 16.6641 33.8242 16.2773C33.8477 15.8789 33.8594 15.4922 33.8594 15.1172C33.8594 14.9297 33.8359 14.707 33.7891 14.4492C33.7422 14.1797 33.6426 13.9277 33.4902 13.6934C33.3379 13.4473 33.1152 13.2422 32.8223 13.0781C32.541 12.9023 32.166 12.8145 31.6973 12.8145C31.4043 12.8145 31.0996 12.8438 30.7832 12.9023C30.4785 12.9609 30.1797 12.9902 29.8867 12.9902C29.7461 12.9902 29.5996 12.9844 29.4473 12.9727C29.2949 12.9609 29.1426 12.9551 28.9902 12.9551C28.5801 12.9551 28.2461 13.043 27.9883 13.2188C27.7305 13.3828 27.5312 13.6113 27.3906 13.9043C27.25 14.1855 27.1504 14.5195 27.0918 14.9062C27.0449 15.293 27.0215 15.7031 27.0215 16.1367C27.0215 16.6992 27.0391 17.168 27.0742 17.543C27.1211 17.918 27.1914 18.2285 27.2852 18.4746C27.3789 18.7207 27.4961 18.9199 27.6367 19.0723C27.7773 19.2129 27.9531 19.3359 28.1641 19.4414C28.3516 19.5117 28.5039 19.5469 28.6211 19.5469C28.7383 19.5469 28.8848 19.582 29.0605 19.6523C29.166 19.6875 29.248 19.7402 29.3066 19.8105C29.3652 19.8691 29.418 19.9336 29.4648 20.0039C29.5234 20.0625 29.582 20.1152 29.6406 20.1621C29.7109 20.209 29.793 20.2324 29.8867 20.2324C29.9688 20.2324 30.0566 20.2266 30.1504 20.2148C30.2559 20.2031 30.3613 20.1973 30.4668 20.1973C30.6074 20.1973 30.7305 20.2207 30.8359 20.2676C30.9414 20.3145 31.0293 20.373 31.0996 20.4434C31.1816 20.502 31.252 20.5547 31.3105 20.6016C31.3809 20.6484 31.4512 20.6719 31.5215 20.6719C31.5566 20.6602 31.6738 20.6016 31.873 20.4961C32.084 20.3906 32.3066 20.2734 32.541 20.1445C32.7754 20.0039 32.9863 19.875 33.1738 19.7578C33.373 19.6406 33.4785 19.5703 33.4902 19.5469C33.5488 19.4531 33.5898 19.3066 33.6133 19.1074C33.6484 18.8965 33.6719 18.6738 33.6836 18.4395C33.707 18.2051 33.7188 17.9766 33.7188 17.7539C33.7305 17.5312 33.7422 17.3496 33.7539 17.209ZM55.709 19.4414C55.709 19.8398 55.6738 20.2324 55.6035 20.6191C55.5332 21.0059 55.498 21.3809 55.498 21.7441C55.498 21.9785 55.5156 22.2129 55.5508 22.4473C55.5859 22.6699 55.6035 22.8926 55.6035 23.1152C55.6035 23.1621 55.5801 23.2617 55.5332 23.4141C55.4863 23.5664 55.4102 23.7363 55.3047 23.9238C55.2109 24.1113 55.082 24.2988 54.918 24.4863C54.7656 24.6621 54.584 24.791 54.373 24.873C54.2324 24.9316 54.0684 24.9668 53.8809 24.9785C53.7051 24.9902 53.5117 25.002 53.3008 25.0137C53.1016 25.0137 52.8906 25.0195 52.668 25.0312C52.457 25.0312 52.2461 25.0488 52.0352 25.084C51.7422 25.1426 51.4844 25.207 51.2617 25.2773C51.0508 25.3477 50.8281 25.3828 50.5938 25.3828C50.1719 25.3828 49.8496 25.2715 49.627 25.0488C49.416 24.8145 49.2578 24.5273 49.1523 24.1875C49.0586 23.8477 49 23.4902 48.9766 23.1152C48.9531 22.7402 48.9297 22.4004 48.9062 22.0957C48.8711 21.6973 48.8242 21.3516 48.7656 21.0586C48.707 20.7539 48.666 20.4668 48.6426 20.1973C48.6426 20.0332 48.6484 19.8809 48.6602 19.7402C48.6836 19.5996 48.6953 19.4648 48.6953 19.3359C48.6953 19.0312 48.6777 18.75 48.6426 18.4922C48.6074 18.2227 48.5312 17.9941 48.4141 17.8066C48.2969 17.6191 48.1152 17.4727 47.8691 17.3672C47.6348 17.2617 47.3184 17.209 46.9199 17.209C46.6387 17.209 46.334 17.25 46.0059 17.332C45.6777 17.4023 45.373 17.5195 45.0918 17.6836C44.8105 17.8477 44.5762 18.0527 44.3887 18.2988C44.2012 18.5449 44.1074 18.832 44.1074 19.1602C44.1074 19.2891 44.1309 19.4297 44.1777 19.582C44.2363 19.7344 44.2656 19.9043 44.2656 20.0918C44.2656 20.4199 44.2246 20.7598 44.1426 21.1113C44.0723 21.4512 44.0371 21.7793 44.0371 22.0957C44.0371 22.5879 44.0723 23.0449 44.1426 23.4668C44.2246 23.8887 44.2656 24.252 44.2656 24.5566C44.2656 24.9668 44.2422 25.3242 44.1953 25.6289C44.1602 25.9336 44.084 26.1855 43.9668 26.3848C43.8496 26.584 43.6797 26.7363 43.457 26.8418C43.2461 26.9473 42.9707 27 42.6309 27C42.0918 27 41.6758 26.8711 41.3828 26.6133C41.0898 26.3555 40.9434 25.957 40.9434 25.418C40.9434 25.2188 40.9492 25.0137 40.9609 24.8027C40.9727 24.5801 40.9785 24.3516 40.9785 24.1172C40.9785 23.8008 40.9434 23.5371 40.873 23.3262C40.8027 23.1152 40.7148 22.9102 40.6094 22.7109C40.5156 22.5117 40.4102 22.3008 40.293 22.0781C40.1875 21.8438 40.0938 21.5508 40.0117 21.1992C39.9883 21.1641 39.9766 21.123 39.9766 21.0762C39.9766 21.0293 39.9766 20.9766 39.9766 20.918C39.9766 20.7891 39.9824 20.6426 39.9941 20.4785C40.0059 20.3027 40.0117 20.127 40.0117 19.9512C40.0117 19.4824 39.9824 18.9785 39.9238 18.4395C39.8652 17.9004 39.7949 17.3496 39.7129 16.7871C39.6426 16.2246 39.5781 15.6738 39.5195 15.1348C39.4609 14.584 39.4316 14.0625 39.4316 13.5703C39.4316 13.1367 39.5254 12.7793 39.7129 12.498C39.9004 12.2168 40.1406 11.9941 40.4336 11.8301C40.7266 11.666 41.0488 11.5547 41.4004 11.4961C41.752 11.4375 42.0918 11.4082 42.4199 11.4082C43.0527 11.4082 43.5566 11.5781 43.9316 11.918C44.3184 12.2461 44.5117 12.6562 44.5117 13.1484C44.5117 13.3125 44.5 13.4883 44.4766 13.6758C44.4531 13.8516 44.4414 14.0332 44.4414 14.2207C44.4414 14.3496 44.459 14.4961 44.4941 14.6602C44.541 14.8242 44.6289 14.9062 44.7578 14.9062C44.8867 14.9062 45.1035 14.8652 45.4082 14.7832C45.7246 14.6895 46.0527 14.584 46.3926 14.4668C46.7441 14.3496 47.0664 14.2441 47.3594 14.1504C47.6523 14.0566 47.8457 13.998 47.9395 13.9746C48.3848 13.8926 48.7715 13.8574 49.0996 13.8691C49.4277 13.8809 49.7324 13.8398 50.0137 13.7461C50.2832 13.6758 50.5 13.6055 50.6641 13.5352C50.8398 13.4648 50.998 13.4004 51.1387 13.3418C51.291 13.2832 51.4434 13.2363 51.5957 13.2012C51.7598 13.166 51.9648 13.1484 52.2109 13.1484C52.6094 13.1484 52.8965 13.1953 53.0723 13.2891C53.2598 13.3711 53.4004 13.4824 53.4941 13.623C53.5879 13.752 53.6641 13.8984 53.7227 14.0625C53.7812 14.2266 53.8809 14.3848 54.0215 14.5371C54.1973 14.7363 54.3789 14.9004 54.5664 15.0293C54.7656 15.1582 54.9414 15.2812 55.0938 15.3984C55.2578 15.5156 55.3867 15.6445 55.4805 15.7852C55.5859 15.9258 55.6387 16.1016 55.6387 16.3125C55.6387 16.4766 55.6152 16.6465 55.5684 16.8223C55.5215 16.998 55.498 17.209 55.498 17.4551C55.498 17.7598 55.5332 18.082 55.6035 18.4219C55.6738 18.7617 55.709 19.1016 55.709 19.4414ZM76.1172 23.2559C76.1523 23.7246 76.1992 24.1582 76.2578 24.5566C76.3281 24.9551 76.3633 25.3242 76.3633 25.6641C76.3633 25.9453 76.3164 26.2207 76.2227 26.4902C76.1406 26.7598 75.9883 26.9941 75.7656 27.1934C75.5547 27.4043 75.2676 27.5742 74.9043 27.7031C74.5527 27.832 74.1074 27.8965 73.5684 27.8965C72.8418 27.8965 72.2676 27.8555 71.8457 27.7734C71.4355 27.6914 71.1309 27.5508 70.9316 27.3516C70.7324 27.1523 70.6094 26.8945 70.5625 26.5781C70.5156 26.2617 70.4922 25.8633 70.4922 25.3828C70.4922 25.1836 70.498 24.9785 70.5098 24.7676C70.5332 24.5566 70.5566 24.3398 70.5801 24.1172C70.123 24.2461 69.6484 24.3633 69.1562 24.4688C68.6758 24.5625 68.1016 24.6738 67.4336 24.8027C67.1992 24.8379 66.9766 24.9199 66.7656 25.0488C66.5547 25.1777 66.3496 25.2422 66.1504 25.2422C66.0215 25.2422 65.8809 25.2246 65.7285 25.1895C65.5879 25.1543 65.4531 25.1367 65.3242 25.1367C65.0195 25.1367 64.7031 25.1895 64.375 25.2949C64.0586 25.4004 63.7832 25.4531 63.5488 25.4531C63.3379 25.4531 63.0977 25.4004 62.8281 25.2949C62.5703 25.1895 62.2598 25.1367 61.8965 25.1367H61.2812C60.8125 25.1367 60.3496 25.0312 59.8926 24.8203C59.4355 24.6094 59.0254 24.375 58.6621 24.1172C58.2988 23.8477 58 23.5957 57.7656 23.3613C57.543 23.1152 57.4316 22.9629 57.4316 22.9043C57.4082 22.8691 57.3848 22.7695 57.3613 22.6055C57.3379 22.4414 57.3145 22.2656 57.291 22.0781C57.2793 21.8906 57.2617 21.7148 57.2383 21.5508C57.2266 21.3867 57.2207 21.2812 57.2207 21.2344C57.1973 21.0586 57.1855 20.8828 57.1855 20.707C57.1855 20.5312 57.1855 20.3613 57.1855 20.1973C57.1855 19.8457 57.1973 19.5117 57.2207 19.1953C57.2441 18.8672 57.2734 18.5391 57.3086 18.2109C57.3438 17.8828 57.373 17.5488 57.3965 17.209C57.4199 16.8691 57.4316 16.5117 57.4316 16.1367C57.4316 15.9492 57.4258 15.7617 57.4141 15.5742C57.4023 15.375 57.3965 15.1758 57.3965 14.9766C57.3965 14.8125 57.4082 14.6777 57.4316 14.5723C57.4668 14.4551 57.502 14.3496 57.5371 14.2559C57.5723 14.1621 57.6074 14.0742 57.6426 13.9922C57.6895 13.8984 57.7246 13.793 57.748 13.6758C57.8066 13.5352 57.8242 13.377 57.8008 13.2012C57.7891 13.0137 57.8242 12.8379 57.9062 12.6738C57.9297 12.5801 57.9766 12.4863 58.0469 12.3926C58.1289 12.2871 58.2168 12.1758 58.3105 12.0586C58.416 11.9414 58.5156 11.8242 58.6094 11.707C58.7148 11.5898 58.8027 11.4668 58.873 11.3379C58.9785 11.1504 59.0605 10.9688 59.1191 10.793C59.1895 10.6055 59.2539 10.4355 59.3125 10.2832C59.3711 10.1191 59.4355 9.97852 59.5059 9.86133C59.5762 9.73242 59.6641 9.63867 59.7695 9.58008C59.8398 9.5332 59.957 9.49219 60.1211 9.45703C60.2852 9.42188 60.4668 9.38672 60.666 9.35156C60.8652 9.30469 61.0703 9.26367 61.2812 9.22852C61.5039 9.19336 61.709 9.15234 61.8965 9.10547C62.4238 8.97656 63.0625 8.87109 63.8125 8.78906C64.5742 8.69531 65.3184 8.64844 66.0449 8.64844C66.5605 8.64844 67.0176 8.70117 67.416 8.80664C67.8145 8.91211 68.1836 9.03516 68.5234 9.17578C68.875 9.30469 69.209 9.43945 69.5254 9.58008C69.8535 9.7207 70.2051 9.82617 70.5801 9.89648C70.6387 9.45117 70.6797 8.91211 70.7031 8.2793C70.7383 7.64648 70.7559 6.99609 70.7559 6.32812C70.7559 5.97656 70.7383 5.625 70.7031 5.27344C70.6797 4.92188 70.6445 4.58203 70.5977 4.25391C70.5625 3.91406 70.5273 3.60352 70.4922 3.32227C70.4688 3.0293 70.457 2.77148 70.457 2.54883C70.457 2.39648 70.498 2.20898 70.5801 1.98633C70.6621 1.75195 70.7734 1.53516 70.9141 1.33594C71.0664 1.125 71.2422 0.949219 71.4414 0.808594C71.6523 0.65625 71.8809 0.580078 72.127 0.580078C72.3145 0.580078 72.5137 0.621094 72.7246 0.703125C72.9355 0.773438 73.1289 0.867187 73.3047 0.984375C73.4805 1.08984 73.627 1.21875 73.7441 1.37109C73.8613 1.51172 73.9199 1.65234 73.9199 1.79297C73.9199 1.94531 73.8965 2.09766 73.8496 2.25C73.8027 2.40234 73.7793 2.57813 73.7793 2.77734C73.8027 2.95312 73.8672 3.14648 73.9727 3.35742C74.0898 3.56836 74.166 3.7793 74.2012 3.99023C74.2715 4.25977 74.3066 4.62891 74.3066 5.09766C74.3184 5.56641 74.3242 6.08789 74.3242 6.66211C74.3359 7.22461 74.3535 7.81641 74.377 8.4375C74.4004 9.05859 74.4648 9.65625 74.5703 10.2305C74.6055 10.4414 74.6641 10.6289 74.7461 10.793C74.8398 10.9453 74.9336 11.1035 75.0273 11.2676C75.1328 11.4199 75.2207 11.5898 75.291 11.7773C75.3613 11.9531 75.3965 12.1699 75.3965 12.4277C75.3965 12.6387 75.3848 12.8672 75.3613 13.1133C75.3379 13.3477 75.3262 13.6113 75.3262 13.9043C75.3613 14.584 75.4082 15.3105 75.4668 16.084C75.5254 16.8457 75.5898 17.6309 75.6602 18.4395C75.7422 19.248 75.8184 20.0625 75.8887 20.8828C75.9707 21.6914 76.0469 22.4824 76.1172 23.2559ZM70.8965 14.5723C70.8379 14.502 70.7148 14.4609 70.5273 14.4492C70.3516 14.4258 70.1406 14.4141 69.8945 14.4141C69.6484 14.4023 69.3789 14.3906 69.0859 14.3789C68.793 14.3555 68.5059 14.3145 68.2246 14.2559C68.0605 14.2207 67.9258 14.1797 67.8203 14.1328C67.7266 14.0859 67.6387 14.0449 67.5566 14.0098C67.4746 13.9629 67.3867 13.9277 67.293 13.9043C67.1992 13.8691 67.082 13.8516 66.9414 13.8516C66.4961 13.8516 66.0625 13.8809 65.6406 13.9395C65.2305 13.9863 64.9082 14.0918 64.6738 14.2559C64.5566 14.3496 64.4395 14.5254 64.3223 14.7832C64.2168 15.041 64.123 15.3516 64.041 15.7148C63.959 16.0781 63.8945 16.4648 63.8477 16.875C63.8008 17.2852 63.7773 17.6836 63.7773 18.0703C63.7773 18.832 63.8652 19.3711 64.041 19.6875C64.2285 20.0039 64.5684 20.1621 65.0605 20.1621C65.2832 20.1621 65.5176 20.1387 65.7637 20.0918C66.0098 20.0332 66.25 19.9746 66.4844 19.916C66.7305 19.8457 66.9531 19.7812 67.1523 19.7227C67.3516 19.6523 67.5215 19.6055 67.6621 19.582C67.791 19.5703 68.0195 19.5469 68.3477 19.5117C68.6758 19.4648 69.0098 19.418 69.3496 19.3711C69.7012 19.3125 70.0176 19.2539 70.2988 19.1953C70.5801 19.1367 70.7441 19.0723 70.791 19.002C70.8262 18.9668 70.8496 18.8848 70.8613 18.7559C70.8848 18.627 70.8965 18.4805 70.8965 18.3164C70.8965 18.1641 70.8906 18 70.8789 17.8242C70.8672 17.6367 70.8555 17.4668 70.8438 17.3145C70.832 17.1504 70.8203 17.0098 70.8086 16.8926C70.7969 16.7754 70.791 16.6992 70.791 16.6641C70.791 16.6523 70.8027 16.5938 70.8262 16.4883C70.8496 16.3828 70.873 16.2539 70.8965 16.1016C70.9199 15.9492 70.9434 15.7852 70.9668 15.6094C70.9902 15.4336 71.002 15.2695 71.002 15.1172C71.002 14.8828 70.9668 14.7012 70.8965 14.5723ZM93.9414 22.7812C93.9648 23.0156 93.9883 23.2324 94.0117 23.4316C94.0469 23.6309 94.0645 23.8125 94.0645 23.9766C94.0645 24.1641 94.0527 24.3047 94.0293 24.3984C94.0059 24.4922 93.9648 24.5742 93.9062 24.6445C93.8594 24.7148 93.7891 24.791 93.6953 24.873C93.6133 24.9551 93.5078 25.0781 93.3789 25.2422C93.2383 25.4648 93.0977 25.6992 92.957 25.9453C92.8281 26.1914 92.6699 26.4141 92.4824 26.6133C92.3066 26.8125 92.0957 26.9766 91.8496 27.1055C91.6152 27.2461 91.3281 27.3164 90.9883 27.3164C90.7773 27.3164 90.5488 27.2988 90.3027 27.2637C90.0684 27.2402 89.8281 27.2109 89.582 27.1758C89.3477 27.1406 89.1133 27.1055 88.8789 27.0703C88.6562 27.0469 88.4512 27.0352 88.2637 27.0352C87.4551 27.0352 86.6348 27.0234 85.8027 27C84.9824 26.9648 84.2031 26.8594 83.4648 26.6836C83.2188 26.6133 82.9609 26.5547 82.6914 26.5078C82.4219 26.4492 82.1523 26.3848 81.8828 26.3145C81.6133 26.2441 81.3555 26.1621 81.1094 26.0684C80.8633 25.9629 80.6523 25.8398 80.4766 25.6992C79.9727 25.1953 79.5684 24.6445 79.2637 24.0469C78.9707 23.4492 78.7363 22.7754 78.5605 22.0254C78.3965 21.2754 78.2793 20.4434 78.209 19.5293C78.1387 18.6152 78.0801 17.5898 78.0332 16.4531C78.0098 16.0547 77.9688 15.6738 77.9102 15.3105C77.8516 14.9473 77.8223 14.666 77.8223 14.4668C77.8223 14.373 77.8633 14.2266 77.9453 14.0273C78.0391 13.8281 78.1035 13.6406 78.1387 13.4648C78.1973 13.207 78.2207 12.9551 78.209 12.709C78.209 12.4512 78.2207 12.293 78.2441 12.2344C78.2793 12.1523 78.3496 12.0586 78.4551 11.9531C78.5723 11.8359 78.6953 11.7129 78.8242 11.584C78.9648 11.4551 79.0996 11.3262 79.2285 11.1973C79.3691 11.0566 79.4863 10.9219 79.5801 10.793C79.6621 10.6758 79.8613 10.5352 80.1777 10.3711C80.5059 10.1953 80.9102 10.0078 81.3906 9.80859C81.8711 9.60938 82.4102 9.41602 83.0078 9.22852C83.6055 9.0293 84.2148 8.85352 84.8359 8.70117C85.4688 8.53711 86.0957 8.4082 86.7168 8.31445C87.3496 8.20898 87.9355 8.15039 88.4746 8.13867C88.6973 8.13867 88.9434 8.17969 89.2129 8.26172C89.4941 8.34375 89.7695 8.45508 90.0391 8.5957C90.3203 8.72461 90.5898 8.87695 90.8477 9.05273C91.1055 9.22852 91.3223 9.4043 91.498 9.58008C91.5918 9.67383 91.6797 9.83203 91.7617 10.0547C91.8438 10.2656 91.9375 10.4414 92.043 10.582C92.3008 10.9102 92.4766 11.1562 92.5703 11.3203C92.6758 11.4844 92.7402 11.6309 92.7637 11.7598C92.7988 11.8887 92.8105 12.0293 92.7988 12.1816C92.7871 12.334 92.7988 12.5684 92.834 12.8848C92.8574 13.1309 92.875 13.3359 92.8867 13.5C92.8984 13.6641 92.9043 13.8164 92.9043 13.957C92.9043 14.0977 92.9043 14.2324 92.9043 14.3613C92.9043 14.4902 92.9043 14.6367 92.9043 14.8008C92.9043 15.1406 92.8164 15.416 92.6406 15.627C92.4648 15.8379 92.2246 16.0312 91.9199 16.207C91.6152 16.3828 91.2461 16.5527 90.8125 16.7168C90.3906 16.8809 89.9336 17.0801 89.4414 17.3145C89.0312 17.5137 88.5918 17.6543 88.123 17.7363C87.6543 17.8184 87.2207 17.8594 86.8223 17.8594C86.7637 17.8594 86.7168 17.8594 86.6816 17.8594C86.6465 17.8594 86.5996 17.8477 86.541 17.8242C86.459 17.8125 86.3184 17.8359 86.1191 17.8945C85.9199 17.9531 85.6914 18.0234 85.4336 18.1055C85.1758 18.1758 84.8945 18.2461 84.5898 18.3164C84.2969 18.375 84.0098 18.4043 83.7285 18.4043C83.541 18.4043 83.3594 18.4336 83.1836 18.4922C83.0195 18.5391 82.873 18.6035 82.7441 18.6855C82.6152 18.7676 82.5098 18.8496 82.4277 18.9316C82.3574 19.0137 82.3223 19.0898 82.3223 19.1602C82.3223 19.5703 82.3926 19.8984 82.5332 20.1445C82.6855 20.3906 82.8496 20.5781 83.0254 20.707C83.2363 20.8594 83.4707 20.9648 83.7285 21.0234C84.0215 21.1523 84.3027 21.2402 84.5723 21.2871C84.8418 21.3223 85.1113 21.3398 85.3809 21.3398C85.8262 21.3398 86.2891 21.3047 86.7695 21.2344C87.2617 21.1641 87.8184 21.1289 88.4395 21.1289C88.7324 21.1289 88.9785 21.1641 89.1777 21.2344C89.3887 21.3047 89.6113 21.3398 89.8457 21.3398C90.0918 21.3398 90.3379 21.3164 90.584 21.2695C90.8301 21.2227 91.0645 21.1699 91.2871 21.1113C91.5098 21.0527 91.7207 21 91.9199 20.9531C92.1309 20.9062 92.3242 20.8828 92.5 20.8828C92.957 20.8828 93.2852 21.041 93.4844 21.3574C93.6953 21.6621 93.8477 22.1367 93.9414 22.7812ZM87.1387 14.6953C87.1621 14.6367 87.1797 14.5723 87.1914 14.502C87.2031 14.4316 87.209 14.3613 87.209 14.291C87.209 13.9395 87.1738 13.6289 87.1035 13.3594C87.0449 13.0781 86.9688 12.8438 86.875 12.6562C86.793 12.457 86.6992 12.3105 86.5938 12.2168C86.4883 12.1113 86.3945 12.0586 86.3125 12.0586C86.0898 12.0586 85.7559 12.1055 85.3105 12.1992C84.8652 12.2812 84.4141 12.3867 83.957 12.5156C83.5 12.6445 83.084 12.7852 82.709 12.9375C82.3457 13.0898 82.123 13.2305 82.041 13.3594C81.9824 13.4531 81.9414 13.5938 81.918 13.7812C81.8945 13.957 81.8828 14.1621 81.8828 14.3965C81.8828 14.8887 81.9121 15.2695 81.9707 15.5391C82.041 15.8086 82.1582 15.9434 82.3223 15.9434C82.4277 15.9434 82.5449 15.9258 82.6738 15.8906C82.8027 15.8555 82.9258 15.8203 83.043 15.7852C83.1719 15.7383 83.2832 15.6973 83.377 15.6621C83.4824 15.627 83.5645 15.6035 83.623 15.5918C83.8809 15.5449 84.1973 15.5098 84.5723 15.4863C84.9473 15.4629 85.3105 15.4277 85.6621 15.3809C86.0254 15.3223 86.3418 15.2461 86.6113 15.1523C86.8926 15.0469 87.0684 14.8945 87.1387 14.6953ZM111.572 15.416C111.561 15.5332 111.525 15.6328 111.467 15.7148C111.42 15.7852 111.361 15.873 111.291 15.9785C111.232 16.0723 111.18 16.1895 111.133 16.3301C111.086 16.4707 111.062 16.6582 111.062 16.8926C111.062 16.9863 111.068 17.0684 111.08 17.1387C111.092 17.209 111.098 17.291 111.098 17.3848C111.098 17.7363 111.016 18.0117 110.852 18.2109C110.699 18.3984 110.488 18.5508 110.219 18.668C109.961 18.7852 109.656 18.8789 109.305 18.9492C108.953 19.0078 108.59 19.0898 108.215 19.1953C107.945 19.2656 107.658 19.3477 107.354 19.4414C107.049 19.5352 106.75 19.582 106.457 19.582C105.965 19.582 105.613 19.4414 105.402 19.1602C105.203 18.8789 105.074 18.5273 105.016 18.1055C104.957 17.6719 104.939 17.209 104.963 16.7168C104.986 16.2246 104.98 15.7676 104.945 15.3457C104.922 14.9121 104.834 14.5547 104.682 14.2734C104.541 13.9922 104.271 13.8516 103.873 13.8516C103.709 13.8516 103.539 13.8809 103.363 13.9395C103.188 13.998 103.018 14.0684 102.854 14.1504C102.701 14.2207 102.555 14.2969 102.414 14.3789C102.285 14.4492 102.18 14.502 102.098 14.5371C101.922 14.6191 101.717 14.707 101.482 14.8008C101.26 14.8828 101.043 14.9766 100.832 15.082C100.621 15.1758 100.439 15.2871 100.287 15.416C100.146 15.5332 100.076 15.6738 100.076 15.8379C100.076 16.1074 100.135 16.4531 100.252 16.875C100.381 17.2852 100.516 17.7012 100.656 18.123C100.797 18.5332 100.926 18.9023 101.043 19.2305C101.172 19.5469 101.236 19.7461 101.236 19.8281C101.236 19.9102 101.219 19.9922 101.184 20.0742C101.148 20.1445 101.131 20.2324 101.131 20.3379C101.131 20.502 101.148 20.6777 101.184 20.8652C101.23 21.0527 101.277 21.252 101.324 21.4629C101.383 21.6621 101.436 21.873 101.482 22.0957C101.529 22.3066 101.553 22.5234 101.553 22.7461C101.553 22.8164 101.547 22.9688 101.535 23.2031C101.523 23.4258 101.506 23.6719 101.482 23.9414C101.459 24.1992 101.424 24.4512 101.377 24.6973C101.342 24.9316 101.295 25.1016 101.236 25.207C101.178 25.3008 101.107 25.3711 101.025 25.418C100.943 25.4648 100.855 25.5059 100.762 25.541C100.668 25.5645 100.568 25.5938 100.463 25.6289C100.357 25.6523 100.246 25.6992 100.129 25.7695C99.8711 25.9336 99.6836 26.0859 99.5664 26.2266C99.4492 26.3555 99.332 26.4727 99.2148 26.5781C99.1094 26.6719 98.9688 26.748 98.793 26.8066C98.6289 26.8652 98.3652 26.8945 98.002 26.8945C97.498 26.8945 97.0762 26.8359 96.7363 26.7188C96.3965 26.5898 96.1211 26.3965 95.9102 26.1387C95.6992 25.8691 95.5469 25.5293 95.4531 25.1191C95.3711 24.709 95.3301 24.2227 95.3301 23.6602C95.3301 23.2734 95.3594 22.8926 95.418 22.5176C95.4883 22.1309 95.5645 21.7441 95.6465 21.3574C95.7402 20.9707 95.8281 20.584 95.9102 20.1973C96.0039 19.7988 96.0742 19.3887 96.1211 18.9668C96.1797 18.4043 96.2266 17.8008 96.2617 17.1562C96.3086 16.5 96.332 15.8906 96.332 15.3281C96.332 14.8594 96.2969 14.332 96.2266 13.7461C96.2031 13.6055 96.1621 13.4648 96.1035 13.3242C96.0449 13.1836 96.0156 13.0488 96.0156 12.9199C96.0156 12.7441 96.0332 12.5566 96.0684 12.3574C96.1152 12.1582 96.1621 11.959 96.209 11.7598C96.2676 11.5605 96.3203 11.3613 96.3672 11.1621C96.4141 10.9512 96.4434 10.7461 96.4551 10.5469C96.4551 10.3477 96.4258 10.1895 96.3672 10.0723C96.3203 9.94336 96.2969 9.81445 96.2969 9.68555C96.2969 9.35742 96.3613 9.10547 96.4902 8.92969C96.6191 8.74219 96.7539 8.61328 96.8945 8.54297C97.0352 8.46094 97.1582 8.41406 97.2637 8.40234C97.3691 8.39062 97.3984 8.38477 97.3516 8.38477C97.7969 8.38477 98.1426 8.47852 98.3887 8.66602C98.6465 8.8418 98.834 9.06445 98.9512 9.33398C99.0801 9.60352 99.1621 9.89648 99.1973 10.2129C99.2324 10.5176 99.2617 10.8047 99.2852 11.0742C99.3086 11.3438 99.3379 11.5723 99.373 11.7598C99.4199 11.9355 99.5137 12.0234 99.6543 12.0234C99.748 12.0234 99.8652 11.9824 100.006 11.9004C100.158 11.8184 100.299 11.7305 100.428 11.6367C100.557 11.543 100.656 11.4668 100.727 11.4082C100.797 11.3379 100.809 11.3262 100.762 11.373L100.727 11.4082C100.738 11.4082 100.75 11.4023 100.762 11.3906C100.797 11.3555 100.838 11.3262 100.885 11.3027C100.838 11.3262 100.814 11.3379 100.814 11.3379H100.797C100.949 11.2207 101.102 11.1035 101.254 10.9863C101.383 10.8926 101.523 10.793 101.676 10.6875C101.828 10.5703 101.969 10.4766 102.098 10.4062C102.297 10.2773 102.52 10.1895 102.766 10.1426C103.012 10.084 103.234 9.99023 103.434 9.86133C103.609 9.73242 103.785 9.5918 103.961 9.43945C104.137 9.28711 104.295 9.16406 104.436 9.07031C104.576 9.01172 104.746 8.95312 104.945 8.89453C105.156 8.83594 105.379 8.78906 105.613 8.75391C105.848 8.70703 106.076 8.67188 106.299 8.64844C106.521 8.61328 106.721 8.5957 106.896 8.5957C107.061 8.5957 107.201 8.625 107.318 8.68359C107.436 8.73047 107.547 8.79492 107.652 8.87695C107.758 8.95898 107.869 9.04102 107.986 9.12305C108.115 9.20508 108.268 9.26953 108.443 9.31641C108.666 9.38672 108.924 9.43945 109.217 9.47461C109.51 9.49805 109.779 9.5625 110.025 9.66797C110.283 9.77344 110.5 9.94922 110.676 10.1953C110.852 10.4297 110.934 10.7988 110.922 11.3027C110.922 11.5254 110.945 11.7246 110.992 11.9004C111.039 12.0762 111.086 12.2344 111.133 12.375C111.191 12.5156 111.244 12.6504 111.291 12.7793C111.338 12.9082 111.361 13.043 111.361 13.1836C111.361 13.3125 111.35 13.4531 111.326 13.6055C111.314 13.7461 111.309 13.8926 111.309 14.0449C111.309 14.2793 111.35 14.5312 111.432 14.8008C111.525 15.0586 111.572 15.2637 111.572 15.416Z" fill="white"/>
</svg>
